{
  "asset": {
    "generator": "Khronos glTF Blender I/O v1.8.19",
    "version": "2.0"
  },
  "scene": 0,
  "scenes": [
    {
      "name": "Scene",
      "nodes": [
        0,
        1
      ]
    }
  ],
  "nodes": [
    {
      "mesh": 0,
      "translation": [
        207.225128,
        14.750598,
        207.948395
      ],
      "scale": [
        3.468165397644043,
        3.468165397644043,
        3.468165397644043
      ]
    },
    {
      "mesh": 0,
      "translation": [
        206.777618,
        3.983962,
        208.124802
      ],
      "scale": [
        1.1840448379516602,
        1.1840448379516602,
        1.1840448379516602
      ]
    }
  ],
  "meshes": [
    {
      "name": "Sphere",
      "primitives": [
        {
          "attributes": {
            "POSITION": 0,
            "NORMAL": 1,
            "TEXCOORD_0": 2
          },
          "indices": 3
        }
      ]
    }
  ],
  "accessors": [
    {
      "bufferView": 0,
      "componentType": 5126,
      "count": 1984,
      "max": [
        0.9999997019767761,
        1,
        0.9999994039535522
      ],
      "min": [
        -0.9999990463256836,
        -1,
        -0.9999987483024597
      ],
      "type": "VEC3"
    },
    {
      "bufferView": 1,
      "componentType": 5126,
      "count": 1984,
      "type": "VEC3"
    },
    {
      "bufferView": 2,
      "componentType": 5126,
      "count": 1984,
      "type": "VEC2"
    },
    {
      "bufferView": 3,
      "componentType": 5123,
      "count": 2880,
      "type": "SCALAR"
    }
  ],
  "bufferViews": [
    {
      "buffer": 0,
      "byteLength": 23808,
      "byteOffset": 0
    },
    {
      "buffer": 0,
      "byteLength": 23808,
      "byteOffset": 23808
    },
    {
      "buffer": 0,
      "byteLength": 15872,
      "byteOffset": 47616
    },
    {
      "buffer": 0,
      "byteLength": 5760,
      "byteOffset": 63488
    }
  ],
  "buffers": [
    {
      "byteLength": 69248,
      "uri": "sphere.default.bin"
    }
  ]
}