{
    "scene": 0,
    "scenes": [{ "nodes": [0] }],
    "nodes": [{ "mesh": 0 }],
    "meshes": [{
        "primitives": [{
            "attributes": {
                "POSITION": 0,
                "NORMAL": 1
            },
            "mode": 1
        }]
    }],
    "accessors": [{
        "bufferView": 0,
        "byteOffset": 0,
        "componentType": 5126,
        "count": 2472,
        "type": "VEC3",
        "max": [ 511.3038024902344, 0.0, 717.587646484375 ],
        "min": [ -438.6488952636719, 0.0, -641.3572387695312 ]
    }, {
        "bufferView": 1,
        "byteOffset": 0,
        "componentType": 5126,
        "count": 1236,
        "type": "VEC3",
        "max": [ 1, 0.0, 1 ],
        "min": [ -1, 0.0, -1 ]
    }],
    "bufferViews": [{
        "buffer": 0,
        "byteOffset" : 0,
        "byteStride": 12,
        "byteLength" : 29664,
        "target" : 34962
    }, {
        "buffer": 0,
        "byteOffset" : 29664,
        "byteStride": 12,
        "byteLength" : 14832,
        "target" : 34962
    }],
    "buffers": [{
        "uri": "./L1_l_sen_opposite_z.bin",
        "byteLength": 44496
    }],
    "asset": { "version" : "2.0" }
  }