{
  "scene": 0,
  "scenes": [
    {
      "nodes": [
        0,
        1,
        2,
        3
      ]
    }
  ],
  "nodes": [
    {
      "mesh": 0,
      "translation": [
        -0.058129,
        5.470827,
        -0.005002
      ],
      "scale": [
        20.716928,
        9.014029,
        3.157157
      ],
      "rotation": [
        -0.4972090021279655,
        -0.5023359907523154,
        0.4976480605078802,
        -0.5027805187156718
      ]
    },
    {
      "mesh": 0,
      "translation": [
        -0.058129,
        5.470827,
        -0.005002
      ],
      "scale": [
        20.716928,
        8.132586,
        3.157157
      ],
      "rotation": [
        -0.7034541076911415,
        -0.004189107071204524,
        0.004768455408283527,
        -0.7107123187338179
      ]
    },
    {
      "mesh": 0,
      "translation": [
        -0.058129,
        5.470827,
        -0.005002
      ],
      "scale": [
        20.716928,
        8.867623,
        3.157157
      ],
      "rotation": [
        -0.6523019880111307,
        0.26668580766656097,
        -0.26338697189113536,
        -0.6587930251604065
      ]
    },
    {
      "mesh": 0,
      "translation": [
        -0.058129,
        5.470827,
        -0.005002
      ],
      "scale": [
        20.716928,
        8.536394,
        3.157157
      ],
      "rotation": [
        -0.26172115418547126,
        0.6599390123337155,
        -0.652972080671741,
        -0.263836879993319
      ]
    }
  ],
  "meshes": [
    {
      "name": "cube.default",
      "primitives": [
        {
          "attributes": {
            "POSITION": 0
          },
          "indices": 1
        }
      ]
    }
  ],
  "accessors": [
    {
      "bufferView": 0,
      "componentType": 5126,
      "type": "VEC3",
      "count": 24,
      "max": [
        1,
        1,
        1
      ],
      "min": [
        -1,
        -1,
        -1
      ]
    },
    {
      "bufferView": 1,
      "componentType": 5123,
      "count": 36,
      "type": "SCALAR"
    }
  ],
  "bufferViews": [
    {
      "buffer": 0,
      "byteOffset": 0,
      "byteLength": 288
    },
    {
      "buffer": 0,
      "byteOffset": 288,
      "byteLength": 72
    }
  ],
  "buffers": [
    {
      "uri": "./cube.default.bin",
      "byteLength": 360
    }
  ],
  "asset": {
    "version": "2.0"
  }
}