{
  "scene": 0,
  "scenes": [
    {
      "nodes": [
        0,
        1,
        2,
        3,
        4,
        5,
        6,
        7,
        8,
        9,
        10,
        11,
        12,
        13,
        14,
        15,
        16,
        17,
        18,
        19,
        20,
        21,
        22,
        23,
        24,
        25,
        26,
        27,
        28,
        29,
        30,
        31,
        32,
        33,
        34,
        35,
        36,
        37,
        38,
        39,
        40,
        41,
        42
      ]
    }
  ],
  "nodes": [
    {
      "mesh": 0,
      "translation": [
        -410.223633,
        0.611407,
        -67.508179
      ],
      "scale": [
        10.989765,
        1.364578,
        0.058351
      ],
      "rotation": [
        -0.0,
        -0.7071067811865475,
        0.0,
        -0.7071067811865476
      ]
    },
    {
      "mesh": 0,
      "translation": [
        -400.08667,
        0.611407,
        -67.508179
      ],
      "scale": [
        10.989765,
        1.364578,
        0.058351
      ],
      "rotation": [
        -0.0,
        -0.7071067811865475,
        0.0,
        -0.7071067811865476
      ]
    },
    {
      "mesh": 0,
      "translation": [
        -405.170319,
        0.611407,
        -56.485569
      ],
      "scale": [
        5.0,
        1.364578,
        0.03612
      ],
      "rotation": [
        -0.0,
        1.0,
        0.0,
        -0.0
      ]
    },
    {
      "mesh": 0,
      "translation": [
        -405.170319,
        0.611407,
        -78.550926
      ],
      "scale": [
        5.0,
        1.364578,
        0.03612
      ],
      "rotation": [
        -0.0,
        1.0,
        0.0,
        -0.0
      ]
    },
    {
      "mesh": 0,
      "translation": [
        -405.170319,
        -0.771652,
        -53.257523
      ],
      "scale": [
        4.075359,
        2.539573,
        1.364578
      ],
      "rotation": [
        0.584178696975506,
        0.584178696975506,
        -0.3984157608023129,
        0.3984157608023129
      ]
    },
    {
      "mesh": 0,
      "translation": [
        -405.170319,
        -0.626846,
        -81.869431
      ],
      "scale": [
        4.075359,
        2.52825,
        1.364578
      ],
      "rotation": [
        -0.40750672074072863,
        -0.40750672074072863,
        0.5778739049308249,
        -0.5778739049308248
      ]
    },
    {
      "mesh": 0,
      "translation": [
        -409.042999,
        2.091903,
        -67.925362
      ],
      "scale": [
        1.005992,
        4.42448,
        0.5
      ],
      "rotation": [
        -0.0,
        0.7071067811865476,
        -0.7071067811865475,
        -0.0
      ]
    },
    {
      "mesh": 0,
      "translation": [
        -354.625305,
        7.53146,
        79.857231
      ],
      "scale": [
        4.033715,
        0.489219,
        0.975994
      ],
      "rotation": [
        0.7071067811865476,
        0.7071067811865475,
        -2.121320343559642e-06,
        -5.65685424949238e-06
      ]
    },
    {
      "mesh": 0,
      "translation": [
        -354.625305,
        7.53146,
        91.733376
      ],
      "scale": [
        0.489219,
        4.033715,
        0.803036
      ],
      "rotation": [
        0.0,
        2.5e-06,
        1.0,
        -0.0
      ]
    },
    {
      "mesh": 0,
      "translation": [
        -354.636078,
        12.664634,
        85.856987
      ],
      "scale": [
        6.960476,
        1.241569,
        0.5
      ],
      "rotation": [
        -7.071067811865475e-07,
        0.7071067811865475,
        -7.071067811865475e-07,
        -0.7071067811865476
      ]
    },
    {
      "mesh": 0,
      "translation": [
        -409.587402,
        8.745911,
        -65.719093
      ],
      "scale": [
        0.405664,
        2.30332,
        0.5
      ],
      "rotation": [
        -0.0,
        0.7071067811865476,
        -0.7071067811865475,
        -0.0
      ]
    },
    {
      "mesh": 0,
      "translation": [
        -409.587402,
        8.745911,
        -70.325729
      ],
      "scale": [
        2.30332,
        0.405664,
        0.5
      ],
      "rotation": [
        0.5,
        0.5,
        -0.5,
        0.5
      ]
    },
    {
      "mesh": 0,
      "translation": [
        -400.793579,
        8.745911,
        -65.719093
      ],
      "scale": [
        2.30332,
        0.405664,
        0.5
      ],
      "rotation": [
        0.5,
        0.5,
        -0.5,
        0.5
      ]
    },
    {
      "mesh": 0,
      "translation": [
        -400.793579,
        8.745911,
        -70.325729
      ],
      "scale": [
        2.30332,
        0.405664,
        0.5
      ],
      "rotation": [
        0.5,
        -0.5,
        0.5,
        0.5
      ]
    },
    {
      "mesh": 0,
      "translation": [
        -400.793579,
        7.509565,
        -65.196243
      ],
      "scale": [
        0.442842,
        0.405664,
        0.5
      ],
      "rotation": [
        0.17393786076672618,
        -0.1739393198117233,
        -0.6853794569434752,
        -0.6853798217047246
      ]
    },
    {
      "mesh": 0,
      "translation": [
        -400.887909,
        7.825356,
        -64.336235
      ],
      "scale": [
        0.442842,
        1.451231,
        0.5
      ],
      "rotation": [
        -0.36164263738429864,
        0.6076294100853554,
        0.36164428312202823,
        -0.6076302329542203
      ]
    },
    {
      "mesh": 0,
      "translation": [
        -400.793579,
        8.434085,
        -66.000427
      ],
      "scale": [
        0.610063,
        0.405664,
        0.5
      ],
      "rotation": [
        0.30196994916267506,
        0.30196994916267506,
        0.6393856426289223,
        -0.6393856426289224
      ]
    },
    {
      "mesh": 0,
      "translation": [
        -400.793579,
        7.509568,
        -70.848572
      ],
      "scale": [
        0.405664,
        0.442842,
        0.5
      ],
      "rotation": [
        0.9692726654559077,
        0.0,
        0.0,
        -0.24598908903291072
      ]
    },
    {
      "mesh": 0,
      "translation": [
        -400.793579,
        8.434084,
        -70.044395
      ],
      "scale": [
        0.405664,
        0.610062,
        0.5
      ],
      "rotation": [
        -0.0,
        0.9042275709134289,
        0.4270506810690583,
        -0.0
      ]
    },
    {
      "mesh": 0,
      "translation": [
        -409.587402,
        7.509566,
        -65.196243
      ],
      "scale": [
        0.442842,
        0.405664,
        0.5
      ],
      "rotation": [
        0.17393786076672618,
        -0.1739393198117233,
        -0.6853794569434752,
        -0.6853798217047246
      ]
    },
    {
      "mesh": 0,
      "translation": [
        -409.587402,
        8.434086,
        -66.000427
      ],
      "scale": [
        0.610063,
        0.405664,
        0.5
      ],
      "rotation": [
        0.30196994916267506,
        0.30196994916267506,
        0.6393856426289223,
        -0.6393856426289224
      ]
    },
    {
      "mesh": 0,
      "translation": [
        -409.587402,
        7.509566,
        -70.848579
      ],
      "scale": [
        0.405664,
        0.442842,
        0.5
      ],
      "rotation": [
        0.969273181306488,
        0.0,
        0.0,
        -0.24598689471488425
      ]
    },
    {
      "mesh": 0,
      "translation": [
        -409.587402,
        8.434084,
        -70.044395
      ],
      "scale": [
        0.405664,
        0.610062,
        0.5
      ],
      "rotation": [
        -0.0,
        0.904227847392459,
        0.4270505504929447,
        -0.0
      ]
    },
    {
      "mesh": 0,
      "translation": [
        -401.328949,
        6.558321,
        -64.876656
      ],
      "scale": [
        1.193164,
        1.460884,
        0.323783
      ],
      "rotation": [
        -0.7071067811865475,
        0.0,
        -0.0,
        -0.7071067811865476
      ]
    },
    {
      "mesh": 0,
      "translation": [
        -401.328949,
        6.558321,
        -71.168167
      ],
      "scale": [
        1.193164,
        1.460884,
        0.323783
      ],
      "rotation": [
        -0.7071067811865475,
        0.0,
        -0.0,
        -0.7071067811865476
      ]
    },
    {
      "mesh": 0,
      "translation": [
        -401.376984,
        2.091903,
        -67.925362
      ],
      "scale": [
        0.928033,
        4.42448,
        0.5
      ],
      "rotation": [
        -0.7071067811865475,
        -0.0,
        0.0,
        -0.7071067811865476
      ]
    },
    {
      "mesh": 0,
      "translation": [
        -405.457367,
        15.919762,
        -122.715309
      ],
      "scale": [
        7.88342,
        17.444042,
        0.5
      ],
      "rotation": [
        0.7071067811865476,
        -0.7071067811865475,
        0.0,
        -0.0
      ]
    },
    {
      "mesh": 0,
      "translation": [
        -408.561371,
        8.859959,
        -77.722923
      ],
      "scale": [
        1.215566,
        0.405664,
        1.27774
      ],
      "rotation": [
        -0.0,
        0.7071067811865476,
        -0.7071067811865475,
        -0.0
      ]
    },
    {
      "mesh": 0,
      "translation": [
        -401.779236,
        8.859959,
        -77.722923
      ],
      "scale": [
        1.215566,
        0.405664,
        1.27774
      ],
      "rotation": [
        -0.7071067811865475,
        -7.071067811865475e-07,
        7.071067811865475e-07,
        -0.7071067811865476
      ]
    },
    {
      "mesh": 0,
      "translation": [
        -401.779236,
        8.859959,
        -57.418339
      ],
      "scale": [
        1.215566,
        0.405664,
        1.27774
      ],
      "rotation": [
        -0.7071067811865475,
        0.0,
        -0.0,
        -0.7071067811865476
      ]
    },
    {
      "mesh": 0,
      "translation": [
        -408.561371,
        8.859959,
        -57.418339
      ],
      "scale": [
        1.215566,
        0.405664,
        1.27774
      ],
      "rotation": [
        -0.7071067811865475,
        0.0,
        -0.0,
        -0.7071067811865476
      ]
    },
    {
      "mesh": 0,
      "translation": [
        -409.587402,
        8.063899,
        -72.129051
      ],
      "scale": [
        0.405664,
        1.182011,
        0.5
      ],
      "rotation": [
        0.0,
        0.0,
        -0.0,
        -1.0
      ]
    },
    {
      "mesh": 0,
      "translation": [
        -409.587402,
        8.063898,
        -63.915771
      ],
      "scale": [
        1.182012,
        0.405664,
        0.5
      ],
      "rotation": [
        0.7071067811865476,
        -0.7071067811865475,
        -1.0606601717798212e-06,
        1.0606601717798212e-06
      ]
    },
    {
      "mesh": 0,
      "translation": [
        -409.681763,
        7.825349,
        -64.336235
      ],
      "scale": [
        0.442842,
        1.451231,
        0.5
      ],
      "rotation": [
        -0.3616444838737199,
        0.6076304386726552,
        0.3616424266980756,
        -0.6076292043672687
      ]
    },
    {
      "mesh": 0,
      "translation": [
        -400.793579,
        8.063898,
        -63.915771
      ],
      "scale": [
        1.182012,
        0.405664,
        0.5
      ],
      "rotation": [
        0.7071067811865476,
        -0.7071067811865475,
        -1.0606601717798212e-06,
        1.0606601717798212e-06
      ]
    },
    {
      "mesh": 0,
      "translation": [
        -400.793579,
        8.063899,
        -72.129051
      ],
      "scale": [
        0.405664,
        1.182011,
        0.5
      ],
      "rotation": [
        0.0,
        0.0,
        -0.0,
        -1.0
      ]
    },
    {
      "mesh": 0,
      "translation": [
        -409.347961,
        6.605321,
        -71.168159
      ],
      "scale": [
        1.22998,
        1.460884,
        0.307267
      ],
      "rotation": [
        -0.0,
        0.7071067811865476,
        -0.7071067811865475,
        -0.0
      ]
    },
    {
      "mesh": 0,
      "translation": [
        -409.347961,
        6.605321,
        -64.876656
      ],
      "scale": [
        1.22998,
        1.460884,
        0.307267
      ],
      "rotation": [
        -0.0,
        0.7071067811865476,
        -0.7071067811865475,
        -0.0
      ]
    },
    {
      "mesh": 0,
      "translation": [
        -405.406525,
        16.657343,
        -13.322087
      ],
      "scale": [
        8.193165,
        17.988813,
        0.5
      ],
      "rotation": [
        0.0,
        0.0,
        0.7071067811865475,
        -0.7071067811865476
      ]
    },
    {
      "mesh": 0,
      "translation": [
        -405.081879,
        3.706365,
        -68.0
      ],
      "scale": [
        1.894254,
        0.87361,
        0.706366
      ],
      "rotation": [
        -0.500007999936251,
        -0.4999920001762456,
        0.4999925001687458,
        -0.5000074999437508
      ]
    },
    {
      "mesh": 0,
      "translation": [
        -405.170319,
        2.487992,
        -68.0
      ],
      "scale": [
        3.638032,
        1.764727,
        0.512008
      ],
      "rotation": [
        0.5,
        0.5,
        -0.5,
        0.5
      ]
    },
    {
      "mesh": 0,
      "translation": [
        -395.63736,
        0.340511,
        -153.593811
      ],
      "scale": [
        1.737926,
        6.029529,
        0.5
      ],
      "rotation": [
        -0.26202503095287355,
        -0.020742338940111994,
        0.9634279941957261,
        -0.05214401107571934
      ]
    },
    {
      "mesh": 0,
      "translation": [
        -404.837646,
        -0.288458,
        -158.906494
      ],
      "scale": [
        1.710862,
        6.411853,
        0.5
      ],
      "rotation": [
        -0.25722122659949537,
        -0.04396333577342184,
        0.9650029792700124,
        0.02595924628020312
      ]
    }
  ],
  "meshes": [
    {
      "name": "cube.default",
      "primitives": [
        {
          "attributes": {
            "POSITION": 0
          },
          "indices": 1
        }
      ]
    }
  ],
  "accessors": [
    {
      "bufferView": 0,
      "componentType": 5126,
      "type": "VEC3",
      "count": 24,
      "max": [
        1,
        1,
        1
      ],
      "min": [
        -1,
        -1,
        -1
      ]
    },
    {
      "bufferView": 1,
      "componentType": 5123,
      "count": 36,
      "type": "SCALAR"
    }
  ],
  "bufferViews": [
    {
      "buffer": 0,
      "byteOffset": 0,
      "byteLength": 288
    },
    {
      "buffer": 0,
      "byteOffset": 288,
      "byteLength": 72
    }
  ],
  "buffers": [
    {
      "uri": "./cube.default.bin",
      "byteLength": 360
    }
  ],
  "asset": {
    "version": "2.0"
  }
}