{
    "scene": 0,
    "scenes": [{
        "nodes": [ 0 ]
    }],
    "nodes": [{
      "mesh": 0,
      "translation": [
        -36.07473373413086,
        32.09479522705078,
        -307.8883361816406
      ],
      "rotation": [
        1.0,
        -1.0,
        -1.0,
        1.0
      ],
      "scale": [
        0.09479369968175888,
        3.100883722305298,
        1.1116210222244263
      ]
    }],
    "meshes": [{
        "name" : "cube.default",
        "primitives": [{
            "attributes": {
                "POSITION": 0
            },
            "indices": 1
        }]
    }],
    "accessors": [{
        "bufferView": 0,
        "componentType": 5126,
        "type": "VEC3",
        "count": 24,
        "max": [ 1, 1, 1 ],
        "min": [ -1, -1, -1 ]
    },{
        "bufferView" : 1,
        "componentType" : 5123,
        "count" : 36,
        "type" : "SCALAR"
    }],
    "bufferViews": [{
        "buffer": 0,
        "byteOffset": 0,
        "byteLength": 288
    },{
        "buffer": 0,
        "byteOffset": 288,
        "byteLength": 72
    }],
    "buffers": [{
       "uri": "./cube.default.bin",
       "byteLength": 360
    }],
    "asset": { "version" : "2.0" }
}