{
    "asset": { "version": "2.0" },
    "scene": 0,
    "scenes": [{
        "nodes": [ 0 ]
    }],
    "nodes": [{
        "mesh": 0
    }],
    "meshes": [{
        "name": "-",
        "primitives": [{
            "attributes": {
                "POSITION": 1
            },
            "indices": 0,
            "mode": 4
        }]
    }],
    "accessors": [{
        "name": "i",
        "bufferView": 0,
        "byteOffset": 0,
        "count": 281,
        "componentType": 5125,
        "type": "SCALAR"
    },{
        "name": "p",
        "bufferView": 1,
        "byteOffset": 0,
        "count": 154,
        "componentType": 5126,
        "type": "VEC3",
        "max": [ 0.46473607420921326, 0.11181029677391052, 1.029897928237915 ],
        "min": [ -0.4647241532802582, -0.16816650331020355, -0.2322155386209488 ]
    }],
    "bufferViews": [{
        "buffer": 0,
        "byteOffset": 0,
        "byteLength": 1124,
        "target": 34963
    },{
        "buffer": 0,
        "byteOffset": 1124,
        "byteLength": 1848,
        "byteStride": 12,
        "target": 34962
    }],
    "buffers": [{
        "uri": "a.bin",
        "byteLength": 2972
    }]
}