{
    "asset" : {
        "version" : "2.0"
    },
    "scene" : 0,
    "scenes" : [
        {
            "name" : "shar_capsule_scene",
            "nodes" : [
                0
            ]
        }
    ],
    "nodes" : [
        {
            "mesh" : 0,
            "name" : "shar_capsule_nodes"
        }
    ],
    "meshes" : [
        {
            "name" : "shar_capsule_mesh",
            "primitives" : [
                {
                    "attributes" : {
                        "POSITION" : 1
                    },
                    "indices": 0,
                    "mode": 4
                }
            ]
        }
    ],
    "accessors" : [
        {
            "bufferView" : 0,
            "componentType" : 5125,
            "count" : 2400,
            "max" : [ 401 ],
            "min" : [ 0 ],
            "type" : "SCALAR"
        },
        {
            "bufferView" : 1,
            "componentType" : 5126,
            "count" : 402,
            "type" : "VEC3",
            "max" : [
                0.20000000298023224,
                0.5,
                0.19999997317790985
            ],
            "min" : [
                -0.20000000298023224,
                -0.49999985098838806,
                -0.19999997317790985
            ]
        }
    ],
    "bufferViews" : [
        {
            "buffer" : 0,
            "byteLength" : 9600,
            "byteOffset" : 0
        },
        {
            "buffer" : 0,
            "byteLength" : 4824,
            "byteOffset" : 9600
        }
    ],
    "buffers" : [
        {
            "byteLength" : 14424,
            "uri" : "./shar_capsule.bin"
        }
    ]
}
