{
  "asset": {
    "generator": "Khronos glTF Blender I/O v1.8.19",
    "version": "2.0"
  },
  "scene": 0,
  "scenes": [
    {
      "name": "Scene",
      "nodes": [
        0,
        1,
        2,
        3,
        4,
        5,
        6,
        7,
        8,
        9,
        10,
        11,
        12,
        13,
        14,
        15,
        16,
        17,
        18,
        19,
        20,
        21,
        22,
        23,
        24,
        25,
        26,
        27,
        28,
        29,
        30,
        31
      ]
    }
  ],
  "nodes": [
    {
      "mesh": 0,
      "translation": [
        259.119629,
        6.179323,
        146.961945
      ],
      "rotation": [
        0.999494,
        0.011968,
        -0.029453,
        0
      ],
      "scale": [
        0.957292377948761,
        7.395959377288818,
        0.957292377948761
      ]
    },
    {
      "mesh": 0,
      "translation": [
        217.569275,
        6.45155,
        119.600632
      ],
      "rotation": [
        0.997193,
        0.067277,
        -0.032879,
        0
      ],
      "scale": [
        1.0502525568008423,
        13.342400550842285,
        1.0502525568008423
      ]
    },
    {
      "mesh": 0,
      "translation": [
        163.979385,
        5.644032,
        213.239899
      ],
      "rotation": [
        0.999857,
        -0.016595,
        -0.003127,
        0
      ],
      "scale": [
        1.6091039180755615,
        10.259669303894043,
        1.6091039180755615
      ]
    },
    {
      "mesh": 0,
      "translation": [
        174.689728,
        4.841064,
        198.452316
      ],
      "rotation": [
        -0.012573,
        0.011425,
        -0.999856,
        0
      ],
      "scale": [
        1.1610240936279297,
        13.165230751037598,
        1.1610240936279297
      ]
    },
    {
      "mesh": 0,
      "translation": [
        235.210724,
        5.444709,
        146.968109
      ],
      "rotation": [
        0.999444,
        -0.003104,
        -0.033183,
        0
      ],
      "scale": [
        0.9048222899436951,
        7.160069942474365,
        0.9048222899436951
      ]
    },
    {
      "mesh": 0,
      "translation": [
        210.767868,
        5.062515,
        146.958145
      ],
      "rotation": [
        0.999422,
        -0.000493,
        -0.033977,
        0
      ],
      "scale": [
        0.8919588923454285,
        7.176573753356934,
        0.8919588923454285
      ]
    },
    {
      "mesh": 0,
      "translation": [
        231.43129,
        6.68255,
        133.594269
      ],
      "rotation": [
        -1.7e-05,
        -1.0,
        -0.000298,
        0
      ],
      "scale": [
        0.3150376081466675,
        0.807189404964447,
        0.3150376081466675
      ]
    },
    {
      "mesh": 0,
      "translation": [
        250.333115,
        6.68255,
        133.594269
      ],
      "rotation": [
        -1.7e-05,
        -1.0,
        -0.000298,
        0
      ],
      "scale": [
        0.3150376081466675,
        0.807189404964447,
        0.3150376081466675
      ]
    },
    {
      "mesh": 0,
      "translation": [
        238.138336,
        5.729257,
        136.491699
      ],
      "rotation": [
        -0.999999,
        0.0,
        0.001645,
        0
      ],
      "scale": [
        0.5,
        1.299735426902771,
        0.5
      ]
    },
    {
      "mesh": 0,
      "translation": [
        243.75174,
        5.729257,
        136.491699
      ],
      "rotation": [
        -0.999999,
        0.0,
        0.001645,
        0
      ],
      "scale": [
        0.5,
        1.299735426902771,
        0.5
      ]
    },
    {
      "mesh": 0,
      "translation": [
        203.898758,
        4.909599,
        142.204926
      ],
      "rotation": [
        -0.020741,
        0.005048,
        -0.999772,
        0
      ],
      "scale": [
        0.8344528675079346,
        4.325411796569824,
        0.8344528675079346
      ]
    },
    {
      "mesh": 0,
      "translation": [
        204.008759,
        5.24949,
        123.449402
      ],
      "rotation": [
        -0.025776,
        -0.039974,
        -0.998868,
        0
      ],
      "scale": [
        0.9582264423370361,
        3.623318672180176,
        0.9582264423370361
      ]
    },
    {
      "mesh": 0,
      "translation": [
        275.299591,
        3.820822,
        183.789612
      ],
      "rotation": [
        -0.999852,
        -3e-06,
        -0.017227,
        0
      ],
      "scale": [
        0.7840339541435242,
        2.049224376678467,
        0.7840339541435242
      ]
    },
    {
      "mesh": 0,
      "translation": [
        262.795288,
        3.820822,
        183.789612
      ],
      "rotation": [
        -0.999852,
        -3e-06,
        -0.017227,
        0
      ],
      "scale": [
        0.7840339541435242,
        2.049224376678467,
        0.7840339541435242
      ]
    },
    {
      "mesh": 0,
      "translation": [
        295.218903,
        3.579185,
        134.399582
      ],
      "rotation": [
        -0.997414,
        0.062803,
        0.034931,
        0
      ],
      "scale": [
        1.0171278715133667,
        1.503121256828308,
        1.0171278715133667
      ]
    },
    {
      "mesh": 0,
      "translation": [
        283.399506,
        3.823744,
        134.399582
      ],
      "rotation": [
        -0.999389,
        -0.001101,
        0.034931,
        0
      ],
      "scale": [
        1.0171278715133667,
        1.503121256828308,
        1.0171278715133667
      ]
    },
    {
      "mesh": 0,
      "translation": [
        334.903351,
        3.218678,
        185.979141
      ],
      "rotation": [
        0.999389,
        -0.001101,
        -0.034931,
        0
      ],
      "scale": [
        1.0171278715133667,
        1.503121256828308,
        1.0171278715133667
      ]
    },
    {
      "mesh": 0,
      "translation": [
        346.165649,
        3.377333,
        186.167923
      ],
      "rotation": [
        0.999389,
        -0.001101,
        -0.034931,
        0
      ],
      "scale": [
        1.0171278715133667,
        1.503121256828308,
        1.0171278715133667
      ]
    },
    {
      "mesh": 0,
      "translation": [
        309.083588,
        3.291466,
        189.941086
      ],
      "rotation": [
        0.999389,
        -0.001101,
        -0.034931,
        0
      ],
      "scale": [
        1.0171278715133667,
        1.503121256828308,
        1.0171278715133667
      ]
    },
    {
      "mesh": 0,
      "translation": [
        301.074127,
        3.223863,
        189.376877
      ],
      "rotation": [
        0.999389,
        -0.001101,
        -0.034931,
        0
      ],
      "scale": [
        1.0171278715133667,
        1.503121256828308,
        1.0171278715133667
      ]
    },
    {
      "mesh": 0,
      "translation": [
        237.705521,
        3.682515,
        183.011658
      ],
      "rotation": [
        1.0,
        -0.0,
        0.0,
        0
      ],
      "scale": [
        0.7017901539802551,
        1.9275193214416504,
        0.7017901539802551
      ]
    },
    {
      "mesh": 0,
      "translation": [
        231.141479,
        3.830712,
        181.470642
      ],
      "rotation": [
        0.002154,
        0.0,
        0.999998,
        0
      ],
      "scale": [
        0.7017901539802551,
        1.9275193214416504,
        0.7017901539802551
      ]
    },
    {
      "mesh": 0,
      "translation": [
        226.884171,
        3.830712,
        181.470642
      ],
      "rotation": [
        0.002154,
        0.0,
        0.999998,
        0
      ],
      "scale": [
        0.7017901539802551,
        1.9275193214416504,
        0.7017901539802551
      ]
    },
    {
      "mesh": 0,
      "translation": [
        320.476929,
        4.997031,
        112.775681
      ],
      "rotation": [
        0.907671,
        0.000135,
        -0.419683,
        0
      ],
      "scale": [
        0.5397319793701172,
        1.7285237312316895,
        0.5397319793701172
      ]
    },
    {
      "mesh": 0,
      "translation": [
        329.028809,
        4.825166,
        121.401375
      ],
      "rotation": [
        -0.002826,
        -0.00523,
        -0.999982,
        0
      ],
      "scale": [
        0.6397311091423035,
        0.8577204942703247,
        0.6397311091423035
      ]
    },
    {
      "mesh": 0,
      "translation": [
        324.728333,
        4.894636,
        116.3339
      ],
      "rotation": [
        0.751925,
        0.017853,
        -0.659007,
        0
      ],
      "scale": [
        0.6986187100410461,
        5.458110332489014,
        0.6986187100410461
      ]
    },
    {
      "mesh": 0,
      "translation": [
        264.315308,
        6.042105,
        209.28125
      ],
      "rotation": [
        0.004567,
        0.99999,
        2.9e-05,
        0
      ],
      "scale": [
        0.29992416501045227,
        0.9637947678565979,
        0.29992416501045227
      ]
    },
    {
      "mesh": 0,
      "translation": [
        379.691284,
        3.164884,
        154.997345
      ],
      "rotation": [
        -0.106431,
        0.021746,
        -0.994082,
        0
      ],
      "scale": [
        0.9707095623016357,
        0.4105873703956604,
        0.9707095623016357
      ]
    },
    {
      "mesh": 0,
      "translation": [
        208.414413,
        6.498573,
        207.847061
      ],
      "rotation": [
        0.932097,
        0.323389,
        -0.163144,
        0
      ],
      "scale": [
        0.3991824984550476,
        1.0668704509735107,
        0.3991824984550476
      ]
    },
    {
      "mesh": 0,
      "translation": [
        205.750366,
        8.706768,
        207.318375
      ],
      "rotation": [
        0.024456,
        0.943077,
        0.331673,
        0
      ],
      "scale": [
        0.5116475224494934,
        1.7033350467681885,
        0.5116475224494934
      ]
    },
    {
      "mesh": 0,
      "translation": [
        209.482834,
        9.232591,
        207.653427
      ],
      "rotation": [
        0.048975,
        0.997553,
        0.04989,
        0
      ],
      "scale": [
        0.39656901359558105,
        1.9877419471740723,
        0.39656901359558105
      ]
    },
    {
      "mesh": 0,
      "translation": [
        204.75943,
        9.174712,
        208.988922
      ],
      "rotation": [
        0.306692,
        -0.867981,
        0.390575,
        0
      ],
      "scale": [
        0.4229982793331146,
        2.1933319568634033,
        0.4229982793331146
      ]
    }
  ],
  "meshes": [
    {
      "name": "Cylinder.003",
      "primitives": [
        {
          "attributes": {
            "POSITION": 0,
            "NORMAL": 1,
            "TEXCOORD_0": 2
          },
          "indices": 3
        }
      ]
    }
  ],
  "accessors": [
    {
      "bufferView": 0,
      "componentType": 5126,
      "count": 192,
      "max": [
        1,
        1,
        1
      ],
      "min": [
        -1,
        -1,
        -1
      ],
      "type": "VEC3"
    },
    {
      "bufferView": 1,
      "componentType": 5126,
      "count": 192,
      "type": "VEC3"
    },
    {
      "bufferView": 2,
      "componentType": 5126,
      "count": 192,
      "type": "VEC2"
    },
    {
      "bufferView": 3,
      "componentType": 5123,
      "count": 372,
      "type": "SCALAR"
    }
  ],
  "bufferViews": [
    {
      "buffer": 0,
      "byteLength": 2304,
      "byteOffset": 0
    },
    {
      "buffer": 0,
      "byteLength": 2304,
      "byteOffset": 2304
    },
    {
      "buffer": 0,
      "byteLength": 1536,
      "byteOffset": 4608
    },
    {
      "buffer": 0,
      "byteLength": 744,
      "byteOffset": 6144
    }
  ],
  "buffers": [
    {
      "byteLength": 6888,
      "uri": "cylinder.default.x.bin"
    }
  ]
}