{
    "scene": 0,
    "scenes": [{
        "nodes": [ 0, 1 ]
    }],
    "nodes": [{
        "mesh": 0
    },{
        "mesh": 0,
        "scale": [
            6.421712398529053,
            0.13767991960048676,
            1.3358571529388428 ],
        "translation": [
            244.90579223632812,
            4.009552001953125,
            -193.4978790283203
        ]
    }],
    "meshes": [{
        "name" : "cube.default",
        "primitives": [{
            "attributes": {
                "POSITION": 0
            },
            "indices": 1,
            "mode": 4
        }]
    }],
    "accessors": [{
        "bufferView": 0,
        "componentType": 5126,
        "type": "VEC3",
        "count": 24,
        "max": [ 1, 1, 1 ],
        "min": [ -1, -1, -1 ]
    },{
        "bufferView" : 1,
        "componentType" : 5123,
        "count" : 36,
        "type" : "SCALAR"
    }],
    "bufferViews": [{
        "buffer": 0,
        "byteOffset": 0,
        "byteLength": 288
    },{
        "buffer": 0,
        "byteOffset": 288,
        "byteLength": 72
    }],
    "buffers": [{
       "uri": "./cube.default.bin",
       "byteLength": 360
    }],
    "asset": { "version" : "2.0" }
}