{
    "scene": 0,
    "scenes": [{
        "nodes": [ 0 ]
    }],
    "nodes": [{
        "mesh": 0,
        "scale": [ 
            5.6352410316467285,
            2.551381826400757,
            1.0288150310516357
        ],
        "translation": [
            323.48699951171875,
            7.2949137687683105,
            118.1545181274414
        ],
        "rotation": [
            0.7633430361747742,
            -1.0,
            -0.7633430361747742,
            1
        ]
    }],
    "meshes": [{
        "name" : "cube.default",
        "primitives": [{
            "attributes": {
                "POSITION": 0
            },
            "indices": 1
        }]
    }],
    "accessors": [{
        "bufferView": 0,
        "componentType": 5126,
        "type": "VEC3",
        "count": 24,
        "max": [ 1, 1, 1 ],
        "min": [ -1, -1, -1 ]
    },{
        "bufferView" : 1,
        "componentType" : 5123,
        "count" : 36,
        "type" : "SCALAR"
    }],
    "bufferViews": [{
        "buffer": 0,
        "byteOffset": 0,
        "byteLength": 288
    },{
        "buffer": 0,
        "byteOffset": 288,
        "byteLength": 72
    }],
    "buffers": [{
       "uri": "./cube.default.bin",
       "byteLength": 360
    }],
    "asset": { "version" : "2.0" }
}