{
  "asset": {
    "version": "2.0"
  },
  "scene": 0,
  "scenes": [
    {
      "nodes": [
        0
      ]
    }
  ],
  "nodes": [
    {
      "mesh": 0
    }
  ],
  "meshes": [
    {
      "primitives": [
        {
          "attributes": {
            "POSITION": 1
          },
          "indices": 0,
          "mode": 4
        }
      ]
    }
  ],
  "accessors": [
    {
      "bufferView": 0,
      "byteOffset": 0,
      "componentType": 5125,
      "type": "SCALAR",
      "count": 18,
      "max": [
        11
      ],
      "min": [
        0
      ]
    },
    {
      "bufferView": 1,
      "byteOffset": 0,
      "componentType": 5126,
      "type": "VEC3",
      "count": 12.0,
      "max": [
        220.0,
        6.164588928222656,
        -104.88796997070312
      ],
      "min": [
        212.95980834960938,
        4.488999366760254,
        -120.0
      ]
    }
  ],
  "bufferViews": [
    {
      "buffer": 0,
      "byteOffset": 0,
      "byteLength": 72,
      "target": 34963
    },
    {
      "buffer": 0,
      "byteOffset": 72,
      "byteLength": 144,
      "target": 34962
    }
  ],
  "buffers": [
    {
      "uri": "./first_pygltf_intersect.bin",
      "byteLength": 216
    }
  ]
}