{
  "scene": 0,
  "scenes": [
    {
      "nodes": [
        0
      ]
    }
  ],
  "nodes": [
      {
    "mesh": 0,
    "scale": [
      1.397512435913086,
      1.1410329341888428,
      0.5
    ],
    "translation": [
      367.53106689453125,
      1.4065537452697754,
      378.0867919921875
    ],
    "rotation": [
      0.17730706930160522,
      -0.32720747590065,
      0.05750559642910957,
      1.0
    ]
  }
],
"meshes": [
  {
    "name": "cube.default",
    "primitives": [
      {
        "attributes": {
          "POSITION": 0
        },
        "indices": 1
      }
    ]
  }
],
"accessors": [
  {
    "bufferView": 0,
    "componentType": 5126,
    "type": "VEC3",
    "count": 24,
    "max": [
      1,
      1,
      1
    ],
    "min": [
      -1,
      -1,
      -1
    ]
  },
  {
    "bufferView": 1,
    "componentType": 5123,
    "count": 36,
    "type": "SCALAR"
  }
],
"bufferViews": [
  {
    "buffer": 0,
    "byteOffset": 0,
    "byteLength": 288
  },
  {
    "buffer": 0,
    "byteOffset": 288,
    "byteLength": 72
  }
],
"buffers": [
  {
    "uri": "./cube.default.bin",
    "byteLength": 360
  }
],
"asset": {
  "version": "2.0"
}
}